<mxfile host="app.diagrams.net" agent="Mozilla/5.0 (Windows NT 10.0; Win64; x64; rv:138.0) Gecko/20100101 Firefox/138.0" version="27.0.5">
  <diagram name="Page-1" id="6t2CfglAitx9H1DpHsWO">
    <mxGraphModel dx="1310" dy="785" grid="1" gridSize="10" guides="1" tooltips="1" connect="1" arrows="1" fold="1" page="1" pageScale="1" pageWidth="3300" pageHeight="4681" math="0" shadow="0">
      <root>
        <mxCell id="0" />
        <mxCell id="1" parent="0" />
        <mxCell id="7NG9NtO2MErQxkC-1M-3-3" style="edgeStyle=orthogonalEdgeStyle;rounded=0;orthogonalLoop=1;jettySize=auto;html=1;entryX=0;entryY=0.5;entryDx=0;entryDy=0;" edge="1" parent="1" source="7NG9NtO2MErQxkC-1M-3-1" target="7NG9NtO2MErQxkC-1M-3-2">
          <mxGeometry relative="1" as="geometry" />
        </mxCell>
        <mxCell id="7NG9NtO2MErQxkC-1M-3-1" value="data&#xa;Patient Health&#xa;Records" style="rectangle;fillColor=#fff2cc;strokeColor=#d6b656;" name="data" vertex="1" parent="1">
          <mxGeometry x="640" y="130" width="100" height="50" as="geometry" />
        </mxCell>
        <mxCell id="7NG9NtO2MErQxkC-1M-3-5" style="edgeStyle=orthogonalEdgeStyle;rounded=0;orthogonalLoop=1;jettySize=auto;html=1;exitX=1;exitY=0.5;exitDx=0;exitDy=0;entryX=0.5;entryY=0;entryDx=0;entryDy=0;" edge="1" parent="1" source="7NG9NtO2MErQxkC-1M-3-2" target="7NG9NtO2MErQxkC-1M-3-4">
          <mxGeometry relative="1" as="geometry" />
        </mxCell>
        <mxCell id="7NG9NtO2MErQxkC-1M-3-2" value="transform:embed" style="rounded=1;whiteSpace=wrap;html=1;arcSize=50;fillColor=#f8cecc;strokeColor=#b85450;" name="transform" vertex="1" parent="1">
          <mxGeometry x="820" y="130" width="100" height="50" as="geometry" />
        </mxCell>
        <mxCell id="7NG9NtO2MErQxkC-1M-3-7" style="edgeStyle=orthogonalEdgeStyle;rounded=0;orthogonalLoop=1;jettySize=auto;html=1;exitX=0.5;exitY=1;exitDx=0;exitDy=0;entryX=0.5;entryY=0;entryDx=0;entryDy=0;" edge="1" parent="1" source="7NG9NtO2MErQxkC-1M-3-4" target="7NG9NtO2MErQxkC-1M-3-6">
          <mxGeometry relative="1" as="geometry" />
        </mxCell>
        <mxCell id="7NG9NtO2MErQxkC-1M-3-4" value="data&#xa;Structured Data" style="rectangle;fillColor=#fff2cc;strokeColor=#d6b656;" name="data" vertex="1" parent="1">
          <mxGeometry x="950" y="230" width="100" height="50" as="geometry" />
        </mxCell>
        <mxCell id="7NG9NtO2MErQxkC-1M-3-11" style="edgeStyle=orthogonalEdgeStyle;rounded=0;orthogonalLoop=1;jettySize=auto;html=1;exitX=0.5;exitY=1;exitDx=0;exitDy=0;entryX=0.5;entryY=0;entryDx=0;entryDy=0;" edge="1" parent="1" source="7NG9NtO2MErQxkC-1M-3-6" target="7NG9NtO2MErQxkC-1M-3-10">
          <mxGeometry relative="1" as="geometry" />
        </mxCell>
        <mxCell id="7NG9NtO2MErQxkC-1M-3-6" value="infer:deduce" style="rounded=1;whiteSpace=wrap;html=1;arcSize=50;fillColor=#bac8d3;strokeColor=#23445d;" name="infer:deduce" vertex="1" parent="1">
          <mxGeometry x="950" y="360" width="100" height="50" as="geometry" />
        </mxCell>
        <mxCell id="7NG9NtO2MErQxkC-1M-3-9" style="edgeStyle=orthogonalEdgeStyle;rounded=0;orthogonalLoop=1;jettySize=auto;html=1;entryX=1;entryY=0.5;entryDx=0;entryDy=0;" edge="1" parent="1" source="7NG9NtO2MErQxkC-1M-3-8" target="7NG9NtO2MErQxkC-1M-3-6">
          <mxGeometry relative="1" as="geometry" />
        </mxCell>
        <mxCell id="7NG9NtO2MErQxkC-1M-3-8" value="model:statistical&#xa;J48 Algorithm" style="shape=hexagon;perimeter=hexagonPerimeter2;fillColor=#b0e3e6;strokeColor=#0e8088;" name="model" vertex="1" parent="1">
          <mxGeometry x="1120" y="360" width="120" height="50" as="geometry" />
        </mxCell>
        <mxCell id="7NG9NtO2MErQxkC-1M-3-22" style="edgeStyle=orthogonalEdgeStyle;rounded=0;orthogonalLoop=1;jettySize=auto;html=1;exitX=0;exitY=0.5;exitDx=0;exitDy=0;entryX=0.5;entryY=0;entryDx=0;entryDy=0;" edge="1" parent="1" source="7NG9NtO2MErQxkC-1M-3-10" target="7NG9NtO2MErQxkC-1M-3-12">
          <mxGeometry relative="1" as="geometry" />
        </mxCell>
        <mxCell id="7NG9NtO2MErQxkC-1M-3-10" value="symbol&#xa;Extracted Rules" style="rectangle;fillColor=#dae8fc;strokeColor=#6c8ebf;" name="symbol" vertex="1" parent="1">
          <mxGeometry x="950" y="490" width="100" height="50" as="geometry" />
        </mxCell>
        <mxCell id="7NG9NtO2MErQxkC-1M-3-18" style="edgeStyle=orthogonalEdgeStyle;rounded=0;orthogonalLoop=1;jettySize=auto;html=1;exitX=0;exitY=0.5;exitDx=0;exitDy=0;entryX=1;entryY=0.5;entryDx=0;entryDy=0;" edge="1" parent="1" source="7NG9NtO2MErQxkC-1M-3-12" target="7NG9NtO2MErQxkC-1M-3-17">
          <mxGeometry relative="1" as="geometry" />
        </mxCell>
        <mxCell id="7NG9NtO2MErQxkC-1M-3-12" value="transform" style="rounded=1;whiteSpace=wrap;html=1;arcSize=50;fillColor=#f8cecc;strokeColor=#b85450;" name="transform" vertex="1" parent="1">
          <mxGeometry x="770" y="590" width="100" height="50" as="geometry" />
        </mxCell>
        <mxCell id="7NG9NtO2MErQxkC-1M-3-14" value="symbol&#xa;New Rules" style="rectangle;fillColor=#dae8fc;strokeColor=#6c8ebf;" name="symbol" vertex="1" parent="1" tooltip="⚠️ Node not part of any valid pattern.">
          <mxGeometry x="950" y="590" width="100" height="50" as="geometry" />
        </mxCell>
        <mxCell id="7NG9NtO2MErQxkC-1M-3-21" style="edgeStyle=orthogonalEdgeStyle;rounded=0;orthogonalLoop=1;jettySize=auto;html=1;exitX=0.5;exitY=1;exitDx=0;exitDy=0;entryX=0.5;entryY=0;entryDx=0;entryDy=0;" edge="1" parent="1" source="7NG9NtO2MErQxkC-1M-3-17" target="7NG9NtO2MErQxkC-1M-3-19">
          <mxGeometry relative="1" as="geometry" />
        </mxCell>
        <mxCell id="7NG9NtO2MErQxkC-1M-3-17" value="symbol&#xa;Fuzzy Rules" style="rectangle;fillColor=#dae8fc;strokeColor=#6c8ebf;" name="symbol" vertex="1" parent="1" tooltip="⚠️ Node not part of any valid pattern.">
          <mxGeometry x="590" y="590" width="100" height="50" as="geometry" />
        </mxCell>
        <mxCell id="7NG9NtO2MErQxkC-1M-3-26" style="edgeStyle=orthogonalEdgeStyle;rounded=0;orthogonalLoop=1;jettySize=auto;html=1;exitX=1;exitY=0.5;exitDx=0;exitDy=0;entryX=0;entryY=0.5;entryDx=0;entryDy=0;" edge="1" parent="1" source="7NG9NtO2MErQxkC-1M-3-19" target="7NG9NtO2MErQxkC-1M-3-24">
          <mxGeometry relative="1" as="geometry" />
        </mxCell>
        <mxCell id="7NG9NtO2MErQxkC-1M-3-19" value="infer:deduce" style="rounded=1;whiteSpace=wrap;html=1;arcSize=50;fillColor=#bac8d3;strokeColor=#23445d;" name="infer:deduce" vertex="1" parent="1" tooltip="⚠️ Node not part of any valid pattern.">
          <mxGeometry x="590" y="720" width="100" height="50" as="geometry" />
        </mxCell>
        <mxCell id="7NG9NtO2MErQxkC-1M-3-36" style="edgeStyle=orthogonalEdgeStyle;rounded=0;orthogonalLoop=1;jettySize=auto;html=1;exitX=1;exitY=0.5;exitDx=0;exitDy=0;entryX=0;entryY=0.5;entryDx=0;entryDy=0;" edge="1" parent="1" source="7NG9NtO2MErQxkC-1M-3-24" target="7NG9NtO2MErQxkC-1M-3-35">
          <mxGeometry relative="1" as="geometry" />
        </mxCell>
        <mxCell id="7NG9NtO2MErQxkC-1M-3-24" value="symbol&#xa;Likelihood&#xa;Prostate Disease" style="rectangle;fillColor=#dae8fc;strokeColor=#6c8ebf;" name="symbol" vertex="1" parent="1" tooltip="⚠️ Node not part of any valid pattern.">
          <mxGeometry x="770" y="720" width="100" height="50" as="geometry" />
        </mxCell>
        <mxCell id="7NG9NtO2MErQxkC-1M-3-28" value="&lt;div&gt;error&lt;/div&gt;&lt;div&gt;&amp;lt;--&lt;/div&gt;" style="text;html=1;align=center;verticalAlign=middle;whiteSpace=wrap;rounded=0;dashed=1;fillColor=#f5f5f5;fontColor=#333333;strokeColor=#666666;strokeWidth=2;" name="text" vertex="1" parent="1">
          <mxGeometry x="870" y="600" width="80" height="30" as="geometry" />
        </mxCell>
        <mxCell id="7NG9NtO2MErQxkC-1M-3-30" style="edgeStyle=orthogonalEdgeStyle;rounded=0;orthogonalLoop=1;jettySize=auto;html=1;exitX=1;exitY=0.5;exitDx=0;exitDy=0;entryX=0.5;entryY=1;entryDx=0;entryDy=0;" edge="1" parent="1" source="7NG9NtO2MErQxkC-1M-3-29" target="7NG9NtO2MErQxkC-1M-3-19">
          <mxGeometry relative="1" as="geometry" />
        </mxCell>
        <mxCell id="7NG9NtO2MErQxkC-1M-3-29" value="data&#xa;Fuzzy Rules" style="rectangle;fillColor=#fff2cc;strokeColor=#d6b656;" name="data" vertex="1" parent="1" tooltip="⚠️ Node not part of any valid pattern.">
          <mxGeometry x="460" y="820" width="100" height="50" as="geometry" />
        </mxCell>
        <mxCell id="7NG9NtO2MErQxkC-1M-3-32" style="edgeStyle=orthogonalEdgeStyle;rounded=0;orthogonalLoop=1;jettySize=auto;html=1;exitX=0.5;exitY=1;exitDx=0;exitDy=0;entryX=0;entryY=0.5;entryDx=0;entryDy=0;" edge="1" parent="1" source="7NG9NtO2MErQxkC-1M-3-31" target="7NG9NtO2MErQxkC-1M-3-29">
          <mxGeometry relative="1" as="geometry" />
        </mxCell>
        <mxCell id="7NG9NtO2MErQxkC-1M-3-31" value="transform:embed" style="rounded=1;whiteSpace=wrap;html=1;arcSize=50;fillColor=#f8cecc;strokeColor=#b85450;" name="transform" vertex="1" parent="1">
          <mxGeometry x="330" y="720" width="100" height="50" as="geometry" />
        </mxCell>
        <mxCell id="7NG9NtO2MErQxkC-1M-3-34" style="edgeStyle=orthogonalEdgeStyle;rounded=0;orthogonalLoop=1;jettySize=auto;html=1;exitX=0.5;exitY=1;exitDx=0;exitDy=0;entryX=0.5;entryY=0;entryDx=0;entryDy=0;" edge="1" parent="1" source="7NG9NtO2MErQxkC-1M-3-33" target="7NG9NtO2MErQxkC-1M-3-31">
          <mxGeometry relative="1" as="geometry" />
        </mxCell>
        <mxCell id="7NG9NtO2MErQxkC-1M-3-33" value="data&#xa;New Patient&#xa;Data" style="rectangle;fillColor=#fff2cc;strokeColor=#d6b656;" name="data" vertex="1" parent="1">
          <mxGeometry x="330" y="590" width="100" height="50" as="geometry" />
        </mxCell>
        <mxCell id="7NG9NtO2MErQxkC-1M-3-38" style="edgeStyle=orthogonalEdgeStyle;rounded=0;orthogonalLoop=1;jettySize=auto;html=1;exitX=1;exitY=0.5;exitDx=0;exitDy=0;entryX=0;entryY=0.5;entryDx=0;entryDy=0;" edge="1" parent="1" source="7NG9NtO2MErQxkC-1M-3-35" target="7NG9NtO2MErQxkC-1M-3-37">
          <mxGeometry relative="1" as="geometry" />
        </mxCell>
        <mxCell id="7NG9NtO2MErQxkC-1M-3-35" value="transform" style="rounded=1;whiteSpace=wrap;html=1;arcSize=50;fillColor=#f8cecc;strokeColor=#b85450;" name="transform" vertex="1" parent="1">
          <mxGeometry x="950" y="720" width="100" height="50" as="geometry" />
        </mxCell>
        <mxCell id="7NG9NtO2MErQxkC-1M-3-40" style="edgeStyle=orthogonalEdgeStyle;rounded=0;orthogonalLoop=1;jettySize=auto;html=1;exitX=0.5;exitY=0;exitDx=0;exitDy=0;entryX=0.5;entryY=1;entryDx=0;entryDy=0;" edge="1" parent="1" source="7NG9NtO2MErQxkC-1M-3-37" target="7NG9NtO2MErQxkC-1M-3-39">
          <mxGeometry relative="1" as="geometry" />
        </mxCell>
        <mxCell id="7NG9NtO2MErQxkC-1M-3-37" value="symbol&#xa;Structured&#xa;Recommendations" style="rectangle;fillColor=#dae8fc;strokeColor=#6c8ebf;" name="symbol" vertex="1" parent="1" tooltip="⚠️ Node not part of any valid pattern.">
          <mxGeometry x="1130" y="720" width="100" height="50" as="geometry" />
        </mxCell>
        <mxCell id="7NG9NtO2MErQxkC-1M-3-41" style="edgeStyle=orthogonalEdgeStyle;rounded=0;orthogonalLoop=1;jettySize=auto;html=1;exitX=0;exitY=0.5;exitDx=0;exitDy=0;entryX=1;entryY=0.5;entryDx=0;entryDy=0;" edge="1" parent="1" source="7NG9NtO2MErQxkC-1M-3-39" target="7NG9NtO2MErQxkC-1M-3-14">
          <mxGeometry relative="1" as="geometry" />
        </mxCell>
        <mxCell id="7NG9NtO2MErQxkC-1M-3-39" value="infer:deduce" style="rounded=1;whiteSpace=wrap;html=1;arcSize=50;fillColor=#bac8d3;strokeColor=#23445d;" name="infer:deduce" vertex="1" parent="1" tooltip="⚠️ Node not part of any valid pattern.">
          <mxGeometry x="1130" y="590" width="100" height="50" as="geometry" />
        </mxCell>
        <mxCell id="7NG9NtO2MErQxkC-1M-3-42" value="error" style="text;html=1;align=center;verticalAlign=middle;whiteSpace=wrap;rounded=0;dashed=1;fillColor=#f5f5f5;fontColor=#333333;strokeColor=#666666;strokeWidth=2;" name="text" vertex="1" parent="1">
          <mxGeometry x="750" y="550" width="40" height="30" as="geometry" />
        </mxCell>
        <mxCell id="7NG9NtO2MErQxkC-1M-3-43" value="error" style="text;html=1;align=center;verticalAlign=middle;whiteSpace=wrap;rounded=0;dashed=1;fillColor=#f5f5f5;fontColor=#333333;strokeColor=#666666;strokeWidth=2;" name="text" vertex="1" parent="1">
          <mxGeometry x="660" y="780" width="40" height="30" as="geometry" />
        </mxCell>
        <mxCell id="7NG9NtO2MErQxkC-1M-3-44" value="error" style="text;html=1;align=center;verticalAlign=middle;whiteSpace=wrap;rounded=0;dashed=1;fillColor=#f5f5f5;fontColor=#333333;strokeColor=#666666;strokeWidth=2;" name="text" vertex="1" parent="1">
          <mxGeometry x="980" y="780" width="40" height="30" as="geometry" />
        </mxCell>
        <mxCell id="7NG9NtO2MErQxkC-1M-3-45" value="error" style="text;html=1;align=center;verticalAlign=middle;whiteSpace=wrap;rounded=0;dashed=1;fillColor=#f5f5f5;fontColor=#333333;strokeColor=#666666;strokeWidth=2;" name="text" vertex="1" parent="1">
          <mxGeometry x="1080" y="640" width="40" height="30" as="geometry" />
        </mxCell>
      </root>
    </mxGraphModel>
  </diagram>
</mxfile>
